<?xml version="1.0" standalone="no"?>
<!DOCTYPE svg PUBLIC "-//W3C//DTD SVG 20010904//EN"
 "http://www.w3.org/TR/2001/REC-SVG-20010904/DTD/svg10.dtd">
<svg version="1.0" xmlns="http://www.w3.org/2000/svg"
 width="93.000000pt" height="98.000000pt" viewBox="0 0 93.000000 98.000000"
 preserveAspectRatio="xMidYMid meet">
<metadata>
Created by potrace 1.16, written by Peter Selinger 2001-2019
</metadata>
<g transform="translate(0.000000,98.000000) scale(0.100000,-0.100000)"
fill="#000000" stroke="none">
<path d="M343 780 c-73 -44 -93 -155 -49 -263 24 -58 24 -58 6 -100 -10 -23
-35 -58 -54 -76 -20 -19 -36 -39 -36 -45 0 -5 15 8 33 29 30 35 35 37 54 24
18 -11 20 -16 10 -29 -10 -13 -10 -13 4 -3 9 7 18 12 20 10 3 -1 -6 7 -18 19
l-24 20 25 55 c13 30 38 67 55 83 22 22 29 35 25 52 -7 27 11 64 32 64 8 0 25
11 37 25 18 21 32 26 77 28 l55 2 1 -45 c0 -25 3 -59 8 -76 5 -24 3 -33 -8
-37 -9 -4 -16 -14 -16 -24 0 -10 -9 -37 -20 -61 -19 -42 -21 -43 -52 -37 -18
4 -37 8 -42 9 -10 1 -34 -75 -28 -92 2 -7 -1 -19 -7 -26 -9 -10 -7 -17 6 -27
16 -13 17 -12 5 3 -9 11 -10 18 -2 23 5 3 10 2 10 -3 0 -5 12 -22 26 -38 27
-30 24 -18 -8 28 -19 27 -22 56 -12 96 6 21 11 22 50 16 l44 -6 20 47 c11 26
20 53 20 60 0 7 7 16 16 19 13 5 15 14 9 49 -11 64 -9 130 4 156 15 28 10 34
-50 54 -34 11 -50 12 -58 4 -8 -8 -11 -6 -11 6 0 21 -8 21 -32 0 -20 -18 -25
-4 -6 15 23 23 -14 13 -39 -10 -23 -22 -33 -12 -11 10 20 20 -33 14 -69 -8z"/>
<path d="M683 538 c-15 -19 -24 -273 -10 -287 32 -32 94 4 82 48 -4 14 -10 76
-14 136 -6 102 -8 110 -27 113 -11 2 -25 -3 -31 -10z m45 -103 c1 -55 8 -110
14 -123 14 -27 2 -55 -26 -60 -38 -8 -44 13 -39 131 5 141 9 159 31 155 14 -3
17 -18 20 -103z"/>
</g>
</svg>
