<?xml version="1.0" standalone="no"?>
<!DOCTYPE svg PUBLIC "-//W3C//DTD SVG 20010904//EN"
 "http://www.w3.org/TR/2001/REC-SVG-20010904/DTD/svg10.dtd">
<svg version="1.0" xmlns="http://www.w3.org/2000/svg"
 width="48.000000pt" height="50.000000pt" viewBox="0 0 48.000000 50.000000"
 preserveAspectRatio="xMidYMid meet">

<g transform="translate(0.000000,50.000000) scale(0.100000,-0.100000)"
fill="#000000" stroke="none">
<path d="M165 385 c-28 -27 -32 -69 -12 -126 l12 -36 20 26 c11 14 19 30 17
35 -6 18 42 55 79 61 41 7 53 29 22 39 -10 3 -20 5 -23 4 -3 -1 -16 4 -29 11
-13 7 -21 9 -18 4 4 -5 0 -10 -8 -10 -8 0 -12 4 -9 9 12 19 -29 6 -51 -17z"/>
<path d="M311 284 c0 -11 3 -14 6 -6 3 7 2 16 -1 19 -3 4 -6 -2 -5 -13z"/>
<path d="M362 197 c-1 -27 -6 -46 -11 -43 -10 7 -9 -20 2 -30 3 -4 14 -4 23 0
12 4 13 10 6 19 -6 7 -12 33 -15 57 l-4 45 -1 -48z m15 -63 c-3 -3 -12 -4 -19
-1 -8 3 -5 6 6 6 11 1 17 -2 13 -5z"/>
<path d="M235 199 c-4 -6 -5 -12 -2 -15 2 -3 7 2 10 11 7 17 1 20 -8 4z"/>
<path d="M270 200 c-9 -6 -10 -10 -3 -10 6 0 15 5 18 10 8 12 4 12 -15 0z"/>
<path d="M109 153 c-13 -17 -13 -17 6 -3 11 8 22 16 24 17 2 2 0 3 -6 3 -6 0
-17 -8 -24 -17z"/>
<path d="M220 139 c0 -5 5 -7 10 -4 6 3 10 8 10 11 0 2 -4 4 -10 4 -5 0 -10
-5 -10 -11z"/>
<path d="M250 105 c0 -8 4 -15 10 -15 5 0 7 7 4 15 -4 8 -8 15 -10 15 -2 0 -4
-7 -4 -15z"/>
</g>
</svg>
