<?xml version="1.0" standalone="no"?>
<!DOCTYPE svg PUBLIC "-//W3C//DTD SVG 20010904//EN"
 "http://www.w3.org/TR/2001/REC-SVG-20010904/DTD/svg10.dtd">
<svg version="1.0" xmlns="http://www.w3.org/2000/svg"
 width="32.000000pt" height="32.000000pt" viewBox="0 0 32.000000 32.000000"
 preserveAspectRatio="xMidYMid meet">
<metadata>
Created by potrace 1.16, written by Peter Selinger 2001-2019
</metadata>
<g transform="translate(0.000000,32.000000) scale(0.100000,-0.100000)"
fill="#000000" stroke="none">
<path d="M108 292 c-32 -15 -58 -33 -58 -41 0 -7 11 -26 24 -42 15 -18 22 -36
19 -49 -6 -23 -33 -27 -33 -5 0 8 -9 15 -20 15 -14 0 -20 -7 -20 -21 0 -20 4
-21 45 -17 25 3 45 2 45 -3 0 -5 -12 -9 -27 -10 -32 -1 -23 -5 27 -13 l35 -6
-3 -50 c-3 -32 0 -50 7 -50 6 0 11 8 11 18 1 16 1 16 14 0 19 -26 26 -22 26
16 0 19 3 37 8 40 4 2 6 -13 4 -35 -3 -23 0 -39 6 -39 6 0 12 15 14 33 2 20 8
32 18 32 10 0 16 -12 18 -32 4 -40 19 -43 25 -5 l4 27 2 -27 c1 -35 21 -37 21
-3 0 29 -21 75 -44 94 -11 9 -13 28 -9 84 6 87 -5 107 -62 112 -29 3 -56 -3
-97 -23z"/>
</g>
</svg>
