<?xml version="1.0" standalone="no"?>
<!DOCTYPE svg PUBLIC "-//W3C//DTD SVG 20010904//EN"
 "http://www.w3.org/TR/2001/REC-SVG-20010904/DTD/svg10.dtd">
<svg version="1.0" xmlns="http://www.w3.org/2000/svg"
 width="123.000000pt" height="129.000000pt" viewBox="0 0 123.000000 129.000000"
 preserveAspectRatio="xMidYMid meet">

<g transform="translate(0.000000,129.000000) scale(0.100000,-0.100000)"
fill="#000000" stroke="none">
<path d="M500 1048 c-138 -39 -183 -207 -105 -384 l24 -55 -20 -51 c-12 -32
-44 -77 -82 -118 -66 -70 -121 -159 -112 -181 9 -21 90 -79 110 -79 20 0 15
10 -7 14 -7 1 -23 8 -35 16 -18 12 -20 17 -10 30 10 13 10 13 -4 3 -13 -11
-19 -9 -34 7 -17 19 -17 21 1 47 10 16 17 32 16 37 -2 5 4 6 13 2 9 -3 13 -2
10 3 -3 5 -1 12 5 16 6 4 8 10 5 14 -2 5 22 36 55 69 39 39 70 83 89 124 16
34 47 80 69 102 35 33 40 43 35 71 -7 41 11 75 40 75 15 0 29 11 40 30 19 32
58 47 137 52 l45 3 1 -70 c1 -39 7 -83 13 -98 15 -39 14 -47 -9 -47 -13 0 -20
-7 -20 -20 0 -29 -39 -123 -56 -137 -12 -9 -26 -8 -61 2 -33 10 -45 10 -48 2
-30 -83 -34 -99 -25 -122 l9 -24 -57 20 c-31 11 -74 31 -95 45 -22 14 -41 23
-44 21 -2 -3 5 -10 16 -17 12 -6 21 -15 21 -21 0 -6 -4 -8 -9 -4 -5 3 -12 1
-15 -4 -7 -10 13 -9 29 1 13 8 37 -5 35 -18 -1 -5 9 -16 22 -24 22 -14 22 -14
8 4 -14 18 -13 19 5 12 11 -4 28 -9 39 -12 23 -4 37 -17 16 -14 -8 1 -22 2
-30 1 -13 -1 -13 -3 -1 -10 10 -6 25 -4 44 6 27 14 29 14 24 -1 -4 -10 -1 -16
9 -16 9 0 12 -5 8 -12 -5 -7 -3 -8 6 -3 10 6 12 4 7 -9 -4 -10 -3 -15 3 -11 6
3 11 1 11 -4 1 -6 2 -17 3 -23 1 -7 -2 -19 -7 -26 -8 -11 4 -18 17 -9 9 5 46
-37 46 -54 0 -9 5 -19 10 -21 6 -2 12 -13 13 -26 0 -12 5 -22 9 -22 4 0 8 -5
8 -11 0 -5 -4 -7 -10 -4 -5 3 -10 1 -10 -4 0 -6 9 -11 20 -11 18 0 17 5 -14
75 -19 41 -56 107 -82 147 -50 77 -58 115 -36 169 10 26 12 26 57 16 39 -9 48
-8 62 6 19 18 53 103 53 130 0 9 6 17 14 17 29 0 36 24 21 75 -19 63 -19 164
0 189 28 37 19 51 -51 76 -55 19 -70 21 -86 11 -18 -11 -19 -10 -13 8 8 27
-16 28 -40 1 -10 -11 -22 -17 -27 -14 -5 3 -2 15 8 25 16 18 16 19 -3 19 -12
0 -28 -11 -37 -25 -9 -14 -21 -23 -27 -19 -7 4 -5 12 5 23 30 33 19 37 -44 19z
m170 -782 c0 -3 -4 -8 -10 -11 -5 -3 -10 -1 -10 4 0 6 5 11 10 11 6 0 10 -2
10 -4z"/>
<path d="M663 804 c-8 -20 13 -42 27 -28 12 12 3 44 -11 44 -5 0 -12 -7 -16
-16z"/>
<path d="M611 743 c-8 -16 -7 -24 4 -33 12 -10 16 -9 21 3 3 9 1 24 -4 33 -9
16 -10 16 -21 -3z"/>
<path d="M907 712 c-12 -13 -17 -48 -21 -152 -2 -74 -6 -152 -8 -174 -2 -32 1
-42 24 -59 23 -17 31 -18 57 -8 41 18 59 63 37 96 -13 19 -16 52 -16 159 0
124 -2 136 -19 146 -27 14 -35 13 -54 -8z m61 -142 c1 -75 7 -145 13 -157 36
-68 -54 -116 -95 -51 -7 12 -6 25 3 45 9 18 14 72 15 153 1 69 5 131 10 138 4
7 18 12 29 10 21 -3 22 -8 25 -138z"/>
<path d="M930 510 c0 -64 -4 -100 -11 -100 -6 0 -9 -12 -7 -27 2 -20 9 -28 22
-28 29 0 43 30 25 52 -12 14 -15 40 -13 111 1 50 -2 92 -7 92 -5 0 -9 -45 -9
-100z"/>
<path d="M344 439 c-3 -6 -1 -16 6 -22 10 -9 11 -9 5 2 -4 8 -2 17 6 22 9 6
10 9 2 9 -6 0 -15 -5 -19 -11z"/>
<path d="M577 339 c7 -7 15 -10 18 -7 3 3 -2 9 -12 12 -14 6 -15 5 -6 -5z"/>
<path d="M498 333 c7 -3 16 -2 19 1 4 3 -2 6 -13 5 -11 0 -14 -3 -6 -6z"/>
<path d="M651 180 c-9 -5 -4 -7 13 -7 29 0 32 2 13 10 -8 3 -20 2 -26 -3z"/>
<path d="M342 171 c-11 -7 -11 -9 0 -14 9 -3 15 1 15 9 0 8 -1 14 -1 14 -1 0
-7 -4 -14 -9z"/>
<path d="M375 159 c-8 -12 -8 -12 30 -32 35 -17 153 -43 161 -34 3 3 -4 11
-16 17 -16 9 -20 9 -15 1 8 -13 -43 -5 -59 10 -5 4 -15 5 -24 2 -9 -4 -13 -2
-9 4 3 5 -4 9 -16 9 -12 -1 -21 4 -20 11 2 8 -4 10 -14 6 -11 -4 -14 -3 -9 5
4 7 5 12 2 12 -3 0 -8 -5 -11 -11z"/>
<path d="M520 141 c0 -5 9 -7 20 -4 11 3 20 7 20 9 0 2 -9 4 -20 4 -11 0 -20
-4 -20 -9z"/>
</g>
</svg>
