<?xml version="1.0" standalone="no"?>
<!DOCTYPE svg PUBLIC "-//W3C//DTD SVG 20010904//EN"
 "http://www.w3.org/TR/2001/REC-SVG-20010904/DTD/svg10.dtd">
<svg version="1.0" xmlns="http://www.w3.org/2000/svg"
 width="122.000000pt" height="123.000000pt" viewBox="0 0 122.000000 123.000000"
 preserveAspectRatio="xMidYMid meet">

<g transform="translate(0.000000,123.000000) scale(0.100000,-0.100000)"
fill="#000000" stroke="none">
<path d="M535 1027 c-43 -20 -102 -89 -114 -134 -17 -59 -13 -155 8 -223 l19
-62 -32 -55 c-20 -33 -58 -76 -97 -107 -68 -55 -132 -133 -149 -180 -6 -16 -7
-26 -3 -23 3 4 17 -2 29 -14 22 -21 23 -21 17 -1 -2 11 0 31 7 43 11 23 10 23
-4 5 -9 -11 -16 -24 -16 -30 0 -6 -3 -7 -10 0 -13 13 -1 56 14 47 6 -3 8 -3 4
2 -4 4 2 21 13 37 16 22 26 27 42 22 22 -6 22 -6 2 10 -14 12 -16 16 -5 15 31
-3 42 1 37 15 -3 8 5 24 18 36 17 16 24 18 28 8 4 -9 6 -7 6 5 1 17 21 23 35
10 4 -4 15 -8 24 -8 12 0 17 -8 17 -25 -1 -20 4 -25 24 -27 21 -1 22 0 8 8 -9
6 -17 14 -17 20 0 5 18 -2 40 -16 22 -14 44 -25 50 -25 6 0 8 -5 4 -12 -5 -8
-2 -9 9 -5 10 3 17 2 17 -3 0 -5 9 -7 20 -5 26 5 37 -31 15 -54 -14 -16 -14
-19 -1 -24 10 -4 13 -1 10 7 -3 8 -1 17 5 21 6 3 11 3 12 -2 3 -29 9 -47 21
-54 7 -5 13 -21 14 -36 0 -16 6 -27 12 -26 7 2 13 -6 14 -17 0 -11 1 -26 2
-32 1 -7 5 -16 9 -19 5 -3 9 -22 10 -42 1 -20 5 -37 10 -37 20 0 -15 125 -65
230 -57 121 -59 131 -37 179 10 22 21 41 24 41 3 0 20 -7 37 -16 38 -20 65 -9
91 34 17 31 17 31 -5 44 -22 12 -22 13 12 18 26 4 36 10 38 27 2 13 11 23 25
25 20 3 21 9 22 115 1 88 5 116 17 130 38 43 29 55 -84 111 -119 60 -197 75
-253 49z m302 -282 c0 -83 -3 -105 -14 -105 -8 0 -19 -13 -24 -30 -9 -23 -17
-30 -37 -30 -31 0 -63 -19 -46 -26 6 -3 18 -10 27 -17 15 -11 15 -14 -3 -37
-18 -23 -21 -24 -52 -12 -65 27 -65 27 -88 -25 -13 -29 -19 -59 -16 -75 l5
-28 -67 36 c-37 20 -76 44 -87 53 -33 30 -46 34 -38 14 5 -15 3 -16 -7 -6 -11
10 -11 16 2 30 9 10 29 41 45 70 16 28 51 70 78 92 43 36 49 45 50 81 1 45 15
64 48 65 12 1 34 13 49 28 25 24 34 27 101 27 l74 0 0 -105z m-547 -349 c0 -3
-4 -8 -10 -11 -5 -3 -10 -1 -10 4 0 6 5 11 10 11 6 0 10 -2 10 -4z"/>
<path d="M868 583 c-21 -2 -38 -7 -38 -11 0 -4 18 -6 40 -4 22 2 40 8 40 13 0
5 -1 8 -2 7 -2 -1 -20 -3 -40 -5z"/>
<path d="M1002 538 c-7 -7 -12 -36 -12 -65 0 -35 -7 -68 -21 -94 -24 -48 -36
-47 -15 2 14 33 7 69 -13 69 -5 0 -25 -33 -45 -72 -32 -63 -36 -82 -35 -138 0
-36 -6 -89 -14 -118 -8 -28 -10 -52 -6 -52 14 0 31 73 36 160 4 68 12 97 36
145 16 33 32 55 34 48 2 -7 0 -21 -6 -32 -13 -24 -15 -71 -3 -71 34 0 76 99
67 156 -10 69 12 60 24 -9 11 -63 11 -65 -34 -178 -43 -109 -56 -167 -35 -154
6 3 10 16 10 29 0 12 20 71 44 130 36 90 42 115 36 145 -4 20 -11 53 -14 74
-7 39 -14 45 -34 25z"/>
<path d="M830 531 c0 -5 8 -11 18 -14 9 -2 26 -8 36 -13 13 -5 17 -4 13 3 -9
14 -67 35 -67 24z"/>
<path d="M815 470 c16 -16 33 -30 39 -30 5 0 -3 14 -19 30 -16 17 -33 30 -39
30 -5 0 3 -13 19 -30z"/>
<path d="M467 373 c-8 -12 30 -29 40 -19 4 3 -1 6 -9 6 -9 0 -18 5 -20 12 -3
9 -6 9 -11 1z"/>
<path d="M571 314 c0 -11 3 -14 6 -6 3 7 2 16 -1 19 -3 4 -6 -2 -5 -13z"/>
<path d="M232 214 c-8 -16 -17 -22 -25 -18 -31 19 21 -31 62 -59 25 -17 40
-23 32 -14 -12 16 -8 22 12 18 5 -1 6 3 2 9 -5 8 -11 8 -21 0 -10 -9 -19 -8
-37 7 -23 18 -26 31 -12 66 11 27 0 20 -13 -9z"/>
<path d="M266 175 c4 -8 8 -15 10 -15 2 0 4 7 4 15 0 8 -4 15 -10 15 -5 0 -7
-7 -4 -15z"/>
<path d="M350 90 c8 -5 20 -10 25 -10 6 0 3 5 -5 10 -8 5 -19 10 -25 10 -5 0
-3 -5 5 -10z"/>
<path d="M455 90 c3 -6 1 -10 -6 -10 -7 0 -10 -3 -6 -6 3 -3 13 -2 22 4 16 8
16 9 1 15 -10 4 -15 3 -11 -3z"/>
<path d="M545 90 c-3 -6 1 -7 9 -4 18 7 21 14 7 14 -6 0 -13 -4 -16 -10z"/>
<path d="M661 84 c0 -11 3 -14 6 -6 3 7 2 16 -1 19 -3 4 -6 -2 -5 -13z"/>
<path d="M540 38 c0 -5 34 -8 77 -8 42 0 74 2 71 5 -8 9 -148 11 -148 3z"/>
</g>
</svg>
