<?xml version="1.0" standalone="no"?>
<!DOCTYPE svg PUBLIC "-//W3C//DTD SVG 20010904//EN"
 "http://www.w3.org/TR/2001/REC-SVG-20010904/DTD/svg10.dtd">
<svg version="1.0" xmlns="http://www.w3.org/2000/svg"
 width="120.000000pt" height="122.000000pt" viewBox="0 0 120.000000 122.000000"
 preserveAspectRatio="xMidYMid meet">

<g transform="translate(0.000000,122.000000) scale(0.100000,-0.100000)"
fill="#000000" stroke="none">
<path d="M520 1015 c-113 -51 -158 -190 -111 -344 l22 -72 -33 -58 c-23 -40
-53 -73 -97 -107 -78 -59 -146 -151 -136 -183 3 -11 11 -21 17 -21 7 0 7 4 1
13 -5 6 -8 18 -7 25 1 6 2 16 3 22 0 5 7 7 15 4 8 -3 17 -1 21 5 4 7 0 8 -11
4 -13 -5 -10 3 10 30 16 20 30 37 32 37 7 0 -1 -25 -11 -33 -6 -5 -4 -7 5 -4
8 2 15 12 15 23 1 22 50 75 61 65 4 -3 4 0 0 7 -9 16 6 16 24 0 12 -11 12 -10
3 2 -10 13 -8 18 6 27 22 14 35 5 20 -13 -8 -10 -6 -12 9 -9 11 2 34 -7 52
-20 17 -13 44 -29 61 -35 16 -7 26 -16 23 -21 -3 -5 2 -19 10 -31 18 -25 21
-17 6 13 -7 11 -7 19 -1 19 5 0 11 -6 14 -12 7 -21 37 11 37 39 0 19 22 76 35
91 2 2 17 -4 34 -12 44 -23 57 -20 87 20 l28 36 -25 19 -24 19 38 0 c30 0 37
4 37 20 0 12 9 24 23 29 21 8 22 14 23 119 1 97 4 114 23 138 11 15 21 32 21
39 0 6 -50 36 -111 65 -124 60 -189 72 -249 45z m304 -217 c-8 -46 -8 -109 1
-145 4 -17 0 -22 -17 -25 -14 -2 -24 -12 -28 -28 -4 -16 -12 -24 -23 -22 -9 1
-29 -4 -44 -12 l-28 -14 28 -13 c32 -15 33 -19 8 -50 -18 -22 -22 -23 -53 -11
-65 27 -64 27 -87 -30 -13 -32 -19 -62 -15 -72 6 -16 3 -17 -17 -11 -33 10
-131 70 -152 93 -16 18 -15 22 14 75 17 32 53 76 85 103 47 41 54 51 54 84 0
42 29 76 55 66 11 -4 25 5 42 24 24 29 28 30 105 30 l81 0 -9 -42z"/>
<path d="M730 659 c0 -5 5 -7 10 -4 6 3 10 8 10 11 0 2 -4 4 -10 4 -5 0 -10
-5 -10 -11z"/>
<path d="M605 640 c-3 -5 -1 -10 4 -10 6 0 11 5 11 10 0 6 -2 10 -4 10 -3 0
-8 -4 -11 -10z"/>
<path d="M565 610 c3 -5 8 -10 11 -10 2 0 4 5 4 10 0 6 -5 10 -11 10 -5 0 -7
-4 -4 -10z"/>
<path d="M505 550 c-3 -5 -1 -10 4 -10 6 0 11 5 11 10 0 6 -2 10 -4 10 -3 0
-8 -4 -11 -10z"/>
<path d="M480 510 c0 -5 5 -10 10 -10 6 0 10 5 10 10 0 6 -4 10 -10 10 -5 0
-10 -4 -10 -10z"/>
<path d="M585 320 c1 -19 14 -43 33 -63 29 -30 52 -74 52 -100 0 -7 -8 3 -18
22 -18 37 -30 45 -49 33 -9 -6 -8 -24 6 -77 10 -39 22 -78 26 -88 6 -15 3 -17
-16 -14 -13 2 -40 0 -59 -4 -25 -5 -14 -7 42 -7 l77 0 -19 27 c-19 28 -46 128
-37 138 4 3 14 -13 23 -36 18 -45 44 -55 44 -17 0 52 -14 88 -52 131 -22 25
-39 48 -37 50 3 2 28 -14 56 -37 48 -37 54 -46 83 -134 17 -52 36 -97 42 -101
7 -4 9 -1 6 8 -3 8 -18 54 -34 103 -30 91 -54 121 -145 180 l-26 16 2 -30z"/>
<path d="M232 300 c-7 -11 -8 -20 -3 -20 9 0 24 30 18 36 -1 2 -8 -6 -15 -16z"/>
<path d="M250 281 c0 -6 4 -13 10 -16 6 -3 7 1 4 9 -7 18 -14 21 -14 7z"/>
<path d="M570 276 c0 -2 8 -10 18 -17 15 -13 16 -12 3 4 -13 16 -21 21 -21 13z"/>
<path d="M260 161 c0 -6 4 -13 10 -16 6 -3 7 1 4 9 -7 18 -14 21 -14 7z"/>
<path d="M280 164 c0 -1 6 -7 14 -13 10 -9 15 -8 19 3 4 10 0 14 -14 13 -10
-1 -19 -2 -19 -3z"/>
<path d="M336 135 c-9 -26 -7 -32 5 -12 6 10 9 21 6 23 -2 3 -7 -2 -11 -11z"/>
<path d="M348 93 c7 -3 16 -2 19 1 4 3 -2 6 -13 5 -11 0 -14 -3 -6 -6z"/>
<path d="M413 75 c0 -8 4 -12 9 -9 5 3 6 10 3 15 -9 13 -12 11 -12 -6z"/>
<path d="M475 80 c-13 -6 -15 -9 -5 -9 8 0 22 4 30 9 18 12 2 12 -25 0z"/>
<path d="M595 71 c-6 -11 13 -26 22 -17 4 3 1 6 -6 6 -7 0 -9 5 -6 10 3 6 4
10 1 10 -3 0 -7 -4 -11 -9z"/>
<path d="M495 40 c3 -5 8 -10 11 -10 2 0 4 5 4 10 0 6 -5 10 -11 10 -5 0 -7
-4 -4 -10z"/>
</g>
</svg>
